<mxfile host="Electron" modified="2023-04-19T20:28:16.769Z" agent="Mozilla/5.0 (Macintosh; Intel Mac OS X 10_15_7) AppleWebKit/537.36 (KHTML, like Gecko) draw.io/21.1.2 Chrome/106.0.5249.199 Electron/21.4.3 Safari/537.36" etag="txC69J7xCORsDcPZEjqh" version="21.1.2" type="device">
  <diagram name="Page-1" id="a2_YCJzAHUfuJFkXp9NQ">
    <mxGraphModel dx="468" dy="727" grid="1" gridSize="10" guides="1" tooltips="1" connect="1" arrows="1" fold="1" page="1" pageScale="1" pageWidth="850" pageHeight="1100" math="0" shadow="0">
      <root>
        <mxCell id="0" />
        <mxCell id="1" parent="0" />
        <mxCell id="WbJlGpyguCcW2pZsQxsa-3" value="" style="edgeStyle=orthogonalEdgeStyle;rounded=0;orthogonalLoop=1;jettySize=auto;html=1;" parent="1" source="WbJlGpyguCcW2pZsQxsa-1" target="WbJlGpyguCcW2pZsQxsa-2" edge="1">
          <mxGeometry relative="1" as="geometry" />
        </mxCell>
        <mxCell id="WbJlGpyguCcW2pZsQxsa-1" value="Start" style="strokeWidth=2;html=1;shape=mxgraph.flowchart.terminator;whiteSpace=wrap;" parent="1" vertex="1">
          <mxGeometry x="40" y="10" width="100" height="60" as="geometry" />
        </mxCell>
        <mxCell id="WbJlGpyguCcW2pZsQxsa-5" value="" style="edgeStyle=orthogonalEdgeStyle;rounded=0;orthogonalLoop=1;jettySize=auto;html=1;" parent="1" source="WbJlGpyguCcW2pZsQxsa-2" target="WbJlGpyguCcW2pZsQxsa-4" edge="1">
          <mxGeometry relative="1" as="geometry" />
        </mxCell>
        <mxCell id="WbJlGpyguCcW2pZsQxsa-2" value="Move forward at 0 degrees at 20 speed for 4.75 seconds" style="whiteSpace=wrap;html=1;strokeWidth=2;" parent="1" vertex="1">
          <mxGeometry x="30" y="90" width="120" height="60" as="geometry" />
        </mxCell>
        <mxCell id="WbJlGpyguCcW2pZsQxsa-7" value="" style="edgeStyle=orthogonalEdgeStyle;rounded=0;orthogonalLoop=1;jettySize=auto;html=1;" parent="1" source="WbJlGpyguCcW2pZsQxsa-4" target="WbJlGpyguCcW2pZsQxsa-6" edge="1">
          <mxGeometry relative="1" as="geometry" />
        </mxCell>
        <mxCell id="WbJlGpyguCcW2pZsQxsa-4" value="Move forward at 90 degrees at 20 speed for 4.85 seconds" style="whiteSpace=wrap;html=1;strokeWidth=2;" parent="1" vertex="1">
          <mxGeometry x="30" y="170" width="120" height="60" as="geometry" />
        </mxCell>
        <mxCell id="WbJlGpyguCcW2pZsQxsa-9" value="" style="edgeStyle=orthogonalEdgeStyle;rounded=0;orthogonalLoop=1;jettySize=auto;html=1;" parent="1" source="WbJlGpyguCcW2pZsQxsa-6" target="WbJlGpyguCcW2pZsQxsa-8" edge="1">
          <mxGeometry relative="1" as="geometry" />
        </mxCell>
        <mxCell id="WbJlGpyguCcW2pZsQxsa-6" value="Move forward at 0 degrees at 20 speed for 5.45 seconds" style="whiteSpace=wrap;html=1;strokeWidth=2;" parent="1" vertex="1">
          <mxGeometry x="30" y="250" width="120" height="60" as="geometry" />
        </mxCell>
        <mxCell id="WbJlGpyguCcW2pZsQxsa-13" value="" style="edgeStyle=orthogonalEdgeStyle;rounded=0;orthogonalLoop=1;jettySize=auto;html=1;" parent="1" source="WbJlGpyguCcW2pZsQxsa-8" edge="1">
          <mxGeometry relative="1" as="geometry">
            <mxPoint x="90" y="410" as="targetPoint" />
          </mxGeometry>
        </mxCell>
        <mxCell id="WbJlGpyguCcW2pZsQxsa-8" value="Move forward at 90 degrees at 145 speed for 2.15 seconds" style="whiteSpace=wrap;html=1;strokeWidth=2;" parent="1" vertex="1">
          <mxGeometry x="30" y="330" width="120" height="60" as="geometry" />
        </mxCell>
        <mxCell id="ma61YyJB0rQNom0FlGs_-4" value="" style="edgeStyle=orthogonalEdgeStyle;rounded=0;orthogonalLoop=1;jettySize=auto;html=1;" parent="1" source="ma61YyJB0rQNom0FlGs_-1" target="ma61YyJB0rQNom0FlGs_-3" edge="1">
          <mxGeometry relative="1" as="geometry" />
        </mxCell>
        <mxCell id="ma61YyJB0rQNom0FlGs_-1" value="Move forward at 225 degrees at 100 speed for 3.3 seconds" style="whiteSpace=wrap;html=1;strokeWidth=2;" parent="1" vertex="1">
          <mxGeometry x="30" y="410" width="120" height="60" as="geometry" />
        </mxCell>
        <mxCell id="ma61YyJB0rQNom0FlGs_-3" value="End" style="strokeWidth=2;html=1;shape=mxgraph.flowchart.terminator;whiteSpace=wrap;" parent="1" vertex="1">
          <mxGeometry x="40" y="490" width="100" height="60" as="geometry" />
        </mxCell>
      </root>
    </mxGraphModel>
  </diagram>
</mxfile>
